<svg xmlns="http://www.w3.org/2000/svg" width="1920px" height="1080px" style="shape-rendering:geometricPrecision; text-rendering:geometricPrecision; image-rendering:optimizeQuality; fill-rule:evenodd; clip-rule:evenodd; background: transparent;">
  <path style="opacity:1" fill="#201836" d="M -0.5,-0.5 C -0.166667,-0.5 0.166667,-0.5 0.5,-0.5C 27.7897,31.9608 55.2897,64.2941 83,96.5C 98.9526,183.55 115.119,270.55 131.5,357.5C 165.147,385.979 198.647,414.646 232,443.5C 232.667,445.833 232.667,448.167 232,450.5C 223.569,493.423 215.902,536.423 209,579.5C 256.667,615.167 304.333,650.833 352,686.5C 352.52,688.289 352.187,689.956 351,691.5C 337.582,713.334 324.415,735.334 311.5,757.5C 329.333,789.167 347.167,820.833 365,852.5C 371.518,885.257 378.351,917.924 385.5,950.5C 407.898,941.868 430.398,933.534 453,925.5C 472.507,935.338 491.674,945.838 510.5,957C 545.5,957.667 580.5,957.667 615.5,957C 651.277,946.297 687.11,935.797 723,925.5C 723.833,925.667 724.667,925.833 725.5,926C 736.333,936.833 747.167,947.667 758,958.5C 821.762,957.017 885.595,955.85 949.5,955C 970.557,948.986 991.557,942.82 1012.5,936.5C 1026.53,917.64 1040.36,898.64 1054,879.5C 1054.8,878.196 1055.97,877.529 1057.5,877.5C 1111.61,899.054 1165.61,920.887 1219.5,943C 1265.5,947.667 1311.5,952.333 1357.5,957C 1377.76,960.237 1397.92,963.737 1418,967.5C 1462.76,965.857 1507.59,964.857 1552.5,964.5C 1567.37,928.417 1582.54,892.417 1598,856.5C 1598.48,854.522 1599.65,853.189 1601.5,852.5C 1678.83,888.164 1756.16,923.831 1833.5,959.5C 1850.99,930.529 1867.99,901.196 1884.5,871.5C 1853.7,819.399 1823.03,767.233 1792.5,715C 1792.76,713.739 1793.43,712.739 1794.5,712C 1824.78,691.389 1854.78,670.389 1884.5,649C 1861.27,612.609 1838.27,576.109 1815.5,539.5C 1833.73,505.377 1852.23,471.377 1871,437.5C 1886.8,426.522 1902.97,416.189 1919.5,406.5C 1919.5,630.833 1919.5,855.167 1919.5,1079.5C 1279.5,1079.5 639.5,1079.5 -0.5,1079.5C -0.5,719.5 -0.5,359.5 -0.5,-0.5 Z " stroke="white" stroke-width="2" stroke-linecap="round"/>
</svg>
