<svg xmlns="http://www.w3.org/2000/svg" width="1920px" height="1080px" style="shape-rendering:geometricPrecision; text-rendering:geometricPrecision; image-rendering:optimizeQuality; fill-rule:evenodd; clip-rule:evenodd">
<path style="opacity:1" fill="#994c83" d="M 1919.5,85.5 C 1919.5,416.833 1919.5,748.167 1919.5,1079.5C 1279.5,1079.5 639.5,1079.5 -0.5,1079.5C -0.5,775.167 -0.5,470.833 -0.5,166.5C 19.7412,210.022 39.9079,253.689 60,297.5C 60.3333,315.5 60.6667,333.5 61,351.5C 73.3435,387.697 85.1768,424.03 96.5,460.5C 119.168,467.667 141.668,475.334 164,483.5C 164.967,523.501 165.967,563.501 167,603.5C 173.667,615.5 180.333,627.5 187,639.5C 188.496,649.471 189.663,659.471 190.5,669.5C 202.823,672.289 214.99,675.622 227,679.5C 228,691.167 229,702.833 230,714.5C 241.055,726.953 251.388,739.953 261,753.5C 273,787.5 285,821.5 297,855.5C 297.667,858.167 297.667,860.833 297,863.5C 295.175,871.788 293.675,880.121 292.5,888.5C 317.5,895.167 342.5,901.833 367.5,908.5C 362.303,925.088 356.303,941.421 349.5,957.5C 369.358,965.592 389.358,973.425 409.5,981C 412.718,987.318 415.552,993.818 418,1000.5C 435.426,999.342 452.926,999.175 470.5,1000C 478.012,1006.85 485.512,1013.68 493,1020.5C 517.833,1011.33 542.667,1002.17 567.5,993C 570.241,992.023 573.075,991.523 576,991.5C 605.433,994.762 634.766,998.429 664,1002.5C 697.424,1001.01 730.924,1000.51 764.5,1001C 771.207,1012.92 778.04,1024.75 785,1036.5C 805.424,1035.51 825.924,1035.17 846.5,1035.5C 850.955,1016.51 855.955,997.679 861.5,979C 911.509,963.552 961.675,948.719 1012,934.5C 1049.88,942.761 1087.71,951.261 1125.5,960C 1192.86,957.303 1260.19,953.803 1327.5,949.5C 1330.5,949.833 1333.5,950.167 1336.5,950.5C 1350.8,981.774 1365.64,1012.77 1381,1043.5C 1407,1010.83 1433,978.167 1459,945.5C 1474.5,932 1490,918.5 1505.5,905C 1543.75,904.809 1581.91,905.643 1620,907.5C 1655.76,861.652 1691.76,815.985 1728,770.5C 1727.91,747.789 1726.74,725.122 1724.5,702.5C 1699.32,680.819 1674.66,658.652 1650.5,636C 1666.63,614.232 1682.63,592.399 1698.5,570.5C 1689.88,544.657 1681.88,518.657 1674.5,492.5C 1707.49,488.76 1740.49,485.094 1773.5,481.5C 1777.9,450.444 1782.73,419.444 1788,388.5C 1800.75,375.588 1812.92,362.255 1824.5,348.5C 1819.1,332.468 1813.6,316.468 1808,300.5C 1807.33,298.833 1807.33,297.167 1808,295.5C 1830.9,269.353 1853.57,243.02 1876,216.5C 1877.91,203.486 1879.91,190.486 1882,177.5C 1890.75,164.326 1899.75,151.326 1909,138.5C 1912.09,120.616 1915.59,102.949 1919.5,85.5 Z " stroke="white" stroke-width="2"/>
</svg>
