<svg xmlns="http://www.w3.org/2000/svg" width="1920px" height="1080px" style="shape-rendering:geometricPrecision; text-rendering:geometricPrecision; image-rendering:optimizeQuality; fill-rule:evenodd; clip-rule:evenodd">
<path style="opacity:1" fill="#fe7899" d="M 1919.5,60.5 C 1919.5,400.167 1919.5,739.833 1919.5,1079.5C 1279.5,1079.5 639.5,1079.5 -0.5,1079.5C -0.5,829.5 -0.5,579.5 -0.5,329.5C 46.0032,367.166 92.6699,404.666 139.5,442C 159.754,456.044 179.921,470.21 200,484.5C 203.977,502.888 208.144,521.221 212.5,539.5C 229.815,554.314 246.981,569.314 264,584.5C 261.467,600.64 257.967,616.64 253.5,632.5C 253.608,633.442 253.941,634.275 254.5,635C 265,641.5 275.5,648 286,654.5C 286.328,657.207 285.995,659.874 285,662.5C 281.531,672.408 278.364,682.408 275.5,692.5C 287.159,710.475 299.326,728.142 312,745.5C 311.944,758.173 311.444,770.839 310.5,783.5C 331.186,785.41 351.853,787.576 372.5,790C 381.333,798.833 390.167,807.667 399,816.5C 399.5,826.494 399.666,836.494 399.5,846.5C 413.585,852.374 427.585,858.54 441.5,865C 455.833,868 470.167,871 484.5,874C 491.158,882.157 498.158,889.99 505.5,897.5C 524.047,888.142 542.88,879.476 562,871.5C 579.228,877.131 596.394,882.965 613.5,889C 636.527,893.539 659.527,898.205 682.5,903C 705.489,904.462 728.489,905.629 751.5,906.5C 749.942,919.513 748.276,932.513 746.5,945.5C 780.097,947.198 813.597,949.531 847,952.5C 860.586,948.31 874.42,945.477 888.5,944C 901.424,956.02 914.924,967.187 929,977.5C 961.933,968.85 994.933,960.517 1028,952.5C 1057.87,957.973 1087.7,963.64 1117.5,969.5C 1118.5,969.333 1119.5,969.167 1120.5,969C 1138.8,953.706 1156.8,938.04 1174.5,922C 1177.17,921.333 1179.83,921.333 1182.5,922C 1222.44,929.989 1262.44,937.322 1302.5,944C 1315.5,925.667 1328.5,907.333 1341.5,889C 1383.83,888.667 1426.17,888.333 1468.5,888C 1485.53,871.964 1502.87,856.297 1520.5,841C 1540.84,841.375 1561.17,842.209 1581.5,843.5C 1578.41,798.172 1575.41,752.839 1572.5,707.5C 1591.83,705.166 1611.17,702.833 1630.5,700.5C 1630.68,671.495 1631.18,642.495 1632,613.5C 1649,596.5 1666,579.5 1683,562.5C 1681.29,525.502 1679.63,488.502 1678,451.5C 1689.36,432.118 1700.19,412.451 1710.5,392.5C 1706.42,377.686 1702.42,362.853 1698.5,348C 1699.44,345.68 1701.11,344.013 1703.5,343C 1734.5,327.167 1765.5,311.333 1796.5,295.5C 1797.33,267.173 1797.83,238.839 1798,210.5C 1808.9,199.6 1819.73,188.767 1830.5,178C 1823.41,164.652 1816.74,151.152 1810.5,137.5C 1832.67,131.443 1854.67,124.776 1876.5,117.5C 1890.5,98.1742 1904.84,79.1742 1919.5,60.5 Z" stroke="white" stroke-width="2"/>
</svg>
